PathFileType	4	(X/Y/Z)	c:/Users/goper/Files/vsCode/490R/osim_files/C08/C08_Fast_01.trc
DataRate	CameraRate	NumFrames	NumMarkers	Units                	OrigDataRate	OrigDataStartFrame	OrigNumFrames
250.00	250.00	10	36	mm	250.0	1133	2264
                Frame#	Time	LPSIS			LASIS			LTH1			LTH2			LTH3			LTH4			LLFE			LMFE			LSH1			LSH2			LSH3			LSH4			LLMAL			LMMAL			LCAL			LMTP5			LTOE			LMTP1			RPSIS			RASIS			RTH1			RTH2			RTH3			RTH4			RLFE			RMFE			RSH1			RSH2			RSH3			RSH4			RLMAL			RMMAL			RCAL			RMTP1			RTOE			RMTP5		
		X1	Y1	Z1	X2	Y2	Z2	X3	Y3	Z3	X4	Y4	Z4	X5	Y5	Z5	X6	Y6	Z6	X7	Y7	Z7	X8	Y8	Z8	X9	Y9	Z9	X10	Y10	Z10	X11	Y11	Z11	X12	Y12	Z12	X13	Y13	Z13	X14	Y14	Z14	X15	Y15	Z15	X16	Y16	Z16	X17	Y17	Z17	X18	Y18	Z18	X19	Y19	Z19	X20	Y20	Z20	X21	Y21	Z21	X22	Y22	Z22	X23	Y23	Z23	X24	Y24	Z24	X25	Y25	Z25	X26	Y26	Z26	X27	Y27	Z27	X28	Y28	Z28	X29	Y29	Z29	X30	Y30	Z30	X31	Y31	Z31	X32	Y32	Z32	X33	Y33	Z33	X34	Y34	Z34	X35	Y35	Z35	X36	Y36	Z36

1133	4.52800	-440.90018	1054.33789	282.23312	-651.79938	1022.42395	356.32236	-571.63409	739.84094	426.04752	-573.57428	663.19281	406.86795	-576.94965	590.50354	399.52618	-650.57800	674.04022	390.69739	-577.96698	540.77380	389.77979	-583.85394	531.71930	261.12308	-519.05389	415.24060	398.59970	-520.58441	367.91788	398.00269	-579.64246	414.48215	398.06140	-574.01288	369.10736	395.53860	-513.96527	95.01547	341.19006	-538.21362	107.92188	253.04272	-450.70279	73.25302	283.34552	-630.67987	44.05704	369.40344	-692.16388	66.47815	312.44861	-659.25232	48.11702	258.62823	-438.09045	1049.67322	222.54871	-626.89508	1022.83441	120.77931	-633.14093	751.90009	63.58110	-662.00629	678.71350	75.80927	-689.40332	602.59888	82.77827	-732.58716	706.48993	96.61995	-707.04089	542.49292	93.58509	-721.69427	536.47888	223.01633	-632.77802	500.87579	83.80612	-612.50305	461.38327	78.22327	-683.18665	466.49353	91.07635	-655.95746	430.90613	84.71967	-430.39395	223.55440	133.67796	-457.99405	206.24712	220.47221	-371.38184	236.47667	205.23010	-519.44702	81.97757	200.60422	-544.82373	93.01302	146.76080	-488.95239	103.89177	90.08199
1134	4.53200	-446.28409	1054.72876	282.48773	-657.02551	1022.59760	356.76773	-574.94281	739.91449	426.31641	-575.61566	663.48157	407.47806	-578.98053	590.55731	399.63260	-653.33630	673.52960	390.68781	-579.54950	540.75977	389.91745	-585.41058	531.75470	261.21481	-519.79156	415.51147	398.49466	-521.20758	368.18936	397.99811	-580.41895	414.51685	398.22833	-574.68103	369.19354	395.69089	-513.86536	95.33820	341.34143	-538.43213	108.04749	252.87175	-450.78064	73.28608	283.08701	-630.70526	44.01202	369.39590	-692.27155	66.33772	312.46536	-659.41980	47.98830	258.58530	-443.57150	1050.08459	222.74199	-632.71625	1023.57666	121.64138	-640.73907	753.10938	63.72118	-670.05737	680.11877	76.04886	-697.97015	604.21124	83.20918	-740.18414	708.37762	97.50749	-715.80219	544.02759	94.49576	-729.82117	538.12726	223.78600	-641.78467	501.03662	84.78413	-622.17529	461.17157	79.14085	-693.33307	467.84363	91.02119	-666.23639	431.45306	85.62045	-445.54150	219.64493	133.52994	-472.66180	203.01358	221.07089	-385.28564	231.49571	206.12230	-537.70367	80.08936	200.71445	-561.29016	91.68845	146.85191	-505.62228	101.61944	90.41116
1135	4.53600	-451.73987	1055.09558	282.78812	-662.18494	1022.68811	357.17569	-578.33002	739.93573	426.58746	-578.94586	663.26343	407.24545	-581.01410	590.57867	399.78333	-656.42767	672.85193	390.31903	-580.89020	540.74908	389.99854	-587.07477	531.72498	261.28958	-520.67578	415.71811	398.38492	-522.17291	368.28311	398.01022	-581.27264	414.57379	398.40863	-575.36542	369.27194	395.88541	-514.05212	95.47813	341.24060	-538.56580	108.15688	252.93753	-450.87183	73.46710	283.00940	-630.73041	43.96546	369.39801	-692.36993	66.12545	312.47757	-659.43170	47.86434	258.68259	-449.05255	1050.48425	222.94058	-635.63495	1023.32568	123.83710	-648.36926	754.26050	63.82957	-678.15454	681.71594	76.32975	-706.00732	606.16321	83.24483	-747.54498	710.22235	98.51107	-724.47388	545.49237	95.40488	-737.78217	539.65564	224.44141	-650.73712	501.09711	85.72407	-631.83344	460.89661	80.09440	-702.54974	468.64920	92.22751	-676.49146	432.02002	86.48499	-459.91418	215.94499	134.19957	-487.48788	199.65268	221.60103	-399.25171	226.41078	207.28131	-554.56824	78.20540	201.06445	-578.33514	90.48270	147.03323	-522.42572	99.44733	90.65422
1136	4.54000	-457.17700	1055.41431	283.06241	-667.42419	1022.66321	357.57028	-581.76068	739.93774	426.85657	-581.66113	663.23694	407.45163	-583.12177	590.61169	399.88239	-658.75812	672.47839	390.65118	-582.59009	540.79523	390.11789	-588.64813	531.64758	261.40100	-521.59045	415.94583	398.50302	-522.94183	368.50653	398.04205	-582.16309	414.62350	398.56735	-576.08862	369.31577	396.04874	-514.20673	95.64867	341.18039	-538.78040	108.28666	252.88013	-451.05246	73.59624	282.90536	-630.76233	43.91727	369.41873	-692.47125	65.90641	312.51126	-659.50641	47.82862	258.64255	-454.52280	1050.82104	223.13528	-641.40173	1023.96082	124.70741	-655.85406	755.37518	64.00478	-685.94025	682.92395	76.64610	-713.23419	608.16345	83.27076	-755.05267	711.96472	99.45489	-733.05463	546.96021	96.29640	-745.65356	541.09235	225.06255	-659.57886	501.10770	86.65537	-641.45544	460.58633	81.04185	-712.14264	469.68250	93.19722	-686.62909	432.52405	87.29612	-474.33035	212.22144	134.84715	-502.41370	196.30896	222.20505	-413.87036	220.89696	207.68633	-571.71045	76.17607	200.99519	-595.41589	89.27992	147.13243	-539.28137	97.22289	90.86158
1137	4.54400	-462.58557	1055.69763	283.33344	-672.61322	1022.57312	357.99448	-585.17719	739.89795	427.11588	-584.36688	663.27130	407.66397	-585.22040	590.61127	400.04434	-661.53052	671.99475	390.68640	-584.51630	540.79645	390.34189	-590.15839	531.60638	261.52536	-522.58594	416.22110	398.53973	-523.77069	368.75476	398.04672	-583.08441	414.67877	398.73560	-576.91010	369.37930	396.23758	-514.41357	95.78157	341.07974	-539.03723	108.44761	252.72350	-451.17429	73.79716	282.87933	-630.82184	43.84968	369.42633	-692.57574	65.69332	312.52933	-659.65546	47.84456	258.58600	-460.04675	1051.14490	223.35356	-647.09784	1024.48206	125.59460	-663.03680	756.45624	64.09729	-693.57190	684.24884	76.89449	-722.69226	609.04871	84.37137	-762.94830	713.61920	100.20840	-741.57806	548.35986	97.20429	-753.65533	542.50092	225.92851	-668.38177	501.08063	87.59282	-651.06665	460.21481	81.89852	-721.40088	470.59967	93.93064	-696.73566	433.02277	88.05688	-488.91690	208.38983	135.47192	-517.55438	192.86925	222.67036	-428.37772	215.59944	208.49313	-589.65350	74.54331	201.19177	-612.64069	88.15057	147.17867	-556.28912	95.12023	91.00347
1138	4.54800	-468.02417	1055.94739	283.62003	-677.79926	1022.43671	358.48932	-588.50885	739.78632	427.50464	-587.14648	663.24207	407.85745	-587.34229	590.66077	400.14316	-664.67133	671.35925	390.31726	-586.19806	540.75751	390.46890	-592.26569	531.53510	260.92026	-523.65698	416.39471	398.54999	-524.60297	369.01212	398.07648	-584.06836	414.72092	398.89258	-577.79193	369.43018	396.37250	-514.58917	95.96107	341.00153	-539.71899	108.74767	252.79977	-451.17786	74.11995	282.85837	-630.87476	43.82709	369.42081	-692.00446	65.17710	312.36392	-659.84613	47.88662	258.57822	-465.49170	1051.45374	223.60213	-652.87677	1024.91675	126.45424	-670.81854	757.41730	64.28942	-701.44415	685.31720	77.16722	-731.95831	610.12396	86.42455	-770.48102	715.28278	101.10614	-749.90033	549.75092	98.08824	-761.51520	543.73358	226.79562	-677.07666	501.11508	88.61153	-660.59442	459.74030	82.75634	-730.92249	471.63660	94.57714	-707.50037	433.95728	88.43729	-503.60873	204.58517	136.07222	-532.69513	189.32426	223.01927	-443.06989	210.18019	209.20256	-607.45728	72.86651	201.16597	-629.99219	87.12688	147.12152	-573.34418	92.98209	91.11448
1139	4.55200	-473.40521	1056.18018	283.86423	-682.96161	1022.17908	358.96188	-591.95819	739.86340	427.66766	-589.87823	663.26428	408.03250	-589.46979	590.67291	400.27026	-667.09338	670.94226	390.61603	-587.88348	540.79779	390.61545	-593.86554	531.49994	261.13089	-524.36121	416.60300	398.08124	-525.46912	369.26291	398.11404	-585.09326	414.80392	399.00732	-578.67023	369.53030	396.49661	-514.78455	96.19371	340.90506	-539.40759	108.63633	252.53096	-451.49280	74.36266	282.73901	-630.93121	43.79816	369.40033	-692.17810	65.03177	312.35742	-660.07172	47.95051	258.61237	-470.96454	1051.70459	223.74591	-658.58722	1025.29968	127.27084	-678.12250	758.38953	64.41588	-709.15656	686.47223	77.40839	-740.04675	611.39722	87.10150	-777.64569	716.80652	102.15253	-758.15509	551.02643	98.99696	-769.21051	545.13129	227.58258	-685.59204	500.90793	89.57098	-670.11835	459.18979	83.59650	-740.10645	472.42484	95.63910	-717.23462	434.22900	89.39165	-518.41736	200.71683	136.61784	-548.01917	185.90532	223.44658	-458.10510	204.67715	209.68935	-624.99890	71.10915	200.73097	-647.42358	86.16286	147.05780	-590.58624	90.90091	91.19104
1140	4.55600	-478.75769	1056.34851	284.04214	-688.13971	1021.79480	359.45734	-595.28442	739.72845	428.01132	-591.96906	663.46930	408.61057	-591.63190	590.72699	400.37894	-669.81244	670.48187	390.55090	-589.39380	540.83044	390.65057	-595.28711	531.43408	261.25818	-525.40918	416.77701	398.41983	-526.41785	369.54715	398.15680	-586.13599	414.88257	399.11444	-579.43579	369.72708	396.73648	-514.96582	96.40900	340.81152	-539.62225	108.77958	252.49585	-451.61578	74.65363	282.66092	-630.98248	43.78765	369.38614	-692.31183	64.82609	312.34579	-660.32544	48.03198	258.68149	-476.36450	1051.98523	223.89635	-664.38501	1025.57397	128.04709	-684.57758	759.08582	64.91737	-716.74207	687.50128	77.66104	-748.04858	612.58868	87.88555	-784.81293	718.14813	103.02628	-766.29175	552.25470	99.88888	-776.74951	546.25446	228.31027	-694.20959	500.64172	90.44342	-679.57446	458.59845	84.35410	-749.26093	473.20966	96.39220	-727.18469	434.53894	90.10996	-533.04993	196.98930	137.40610	-563.57062	182.49173	223.84662	-472.85449	199.43109	210.71352	-643.52710	69.64496	201.28242	-664.90302	85.26952	146.94960	-607.67834	88.86902	91.30730
1141	4.56000	-484.11810	1056.47705	284.20541	-693.29053	1021.34552	360.03412	-598.66406	739.69171	428.22372	-595.31323	663.27557	408.34729	-593.80450	590.77399	400.53372	-672.60760	670.01575	390.54172	-591.36707	540.83057	390.86301	-596.90900	531.38983	261.51083	-526.48926	417.15021	398.17645	-527.35083	369.85544	398.21384	-587.27966	414.96198	399.21252	-580.37482	369.82150	396.82074	-515.14240	96.64591	340.69217	-539.87952	108.92688	252.45238	-452.13834	74.71150	282.42209	-631.01996	43.78432	369.35745	-692.42914	64.63818	312.33926	-660.60077	48.12672	258.77875	-481.81396	1052.14539	224.02646	-670.15820	1025.77356	128.75203	-692.68079	759.74487	64.39383	-724.30054	688.47095	77.92857	-755.71692	613.65979	88.39978	-792.08643	719.43042	103.92365	-774.26666	553.36053	100.80099	-784.19958	547.45544	228.96938	-702.66797	500.24548	91.30105	-689.21045	457.21597	85.93079	-758.38605	473.92007	96.98842	-737.06610	434.84293	90.78071	-548.00555	193.07590	138.03992	-579.42474	178.74078	224.11401	-487.89081	193.97571	211.39275	-661.89044	68.29730	201.12215	-683.01971	84.50533	147.01837	-625.28802	86.95119	91.19142
1142	4.56400	-489.46170	1056.54480	284.30994	-698.31671	1020.78583	360.57568	-602.07391	739.65051	428.44418	-598.07397	663.25354	408.51474	-595.95435	590.79846	400.64691	-675.71777	669.32941	390.25345	-593.10962	540.85834	391.04300	-598.58716	531.37738	261.70343	-527.75592	417.63544	398.65906	-528.28851	370.09686	398.28152	-588.39624	414.99411	399.32901	-581.49750	369.80731	396.79379	-515.36011	96.85491	340.58679	-540.20605	109.21557	252.51031	-452.25601	74.96717	282.34161	-631.06335	43.76223	369.35614	-692.58191	64.39114	312.33417	-660.89099	48.23046	258.89728	-487.23926	1052.28455	224.12198	-675.90094	1025.87976	129.48816	-699.96106	760.49481	64.43890	-731.83044	689.32043	78.22173	-763.61023	614.75323	89.33373	-799.18652	720.63550	104.85120	-782.24792	554.41565	101.68244	-791.48859	548.60242	229.87134	-711.08777	499.73535	92.11634	-698.60803	456.78317	86.65290	-767.34259	474.59409	97.71587	-746.92480	435.04529	91.43529	-563.15295	189.12036	138.56708	-595.03339	175.37383	224.47615	-503.16931	188.44263	212.05472	-680.11902	66.93029	200.94016	-700.49274	83.87598	146.67485	-642.79510	85.07738	91.19553
